#tb 0: 1/25
#media_type 0: video
#codec_id 0: rawvideo
#dimensions 0: 1280x720
#sar 0: 0/1
0,          0,          0,        1,  5529600, 0x9341a1bc
0,          1,          1,        1,  5529600, 0xd82681e4
0,          2,          2,        1,  5529600, 0x15c21d98
0,          3,          3,        1,  5529600, 0x924bfbd8
0,          4,          4,        1,  5529600, 0x1643363d
0,          5,          5,        1,  5529600, 0x595b30f9
0,          6,          6,        1,  5529600, 0x019239b8
0,          7,          7,        1,  5529600, 0x71c46d38
0,          8,          8,        1,  5529600, 0x730e5e76
0,          9,          9,        1,  5529600, 0x361ff5c6
0,         10,         10,        1,  5529600, 0xa3cdd21e
0,         11,         11,        1,  5529600, 0x4a4f91dc
0,         12,         12,        1,  5529600, 0xb93261d7
0,         13,         13,        1,  5529600, 0xa23c96c1
0,         14,         14,        1,  5529600, 0x9688d6f6
0,         15,         15,        1,  5529600, 0xc09cf563
0,         16,         16,        1,  5529600, 0x9ba04dfb
0,         17,         17,        1,  5529600, 0xc3b77640
0,         18,         18,        1,  5529600, 0x0cac54cf
0,         19,         19,        1,  5529600, 0xd7074fb3
0,         20,         20,        1,  5529600, 0xa2078ecf
0,         21,         21,        1,  5529600, 0x0d98dc64
0,         22,         22,        1,  5529600, 0xac16b426
0,         23,         23,        1,  5529600, 0x0864ab52
0,         24,         24,        1,  5529600, 0xe9c96fc0
0,         25,         25,        1,  5529600, 0x67cb6cb5
0,         26,         26,        1,  5529600, 0x3a1387f6
0,         27,         27,        1,  5529600, 0x9d5ec8c7
0,         28,         28,        1,  5529600, 0x2cfe9508
0,         29,         29,        1,  5529600, 0xa0d8fa57
0,         30,         30,        1,  5529600, 0x62ec752e
0,         31,         31,        1,  5529600, 0x9443911c
0,         32,         32,        1,  5529600, 0xdf7fa4db
0,         33,         33,        1,  5529600, 0x1b7588fe
0,         34,         34,        1,  5529600, 0x5b048bf4
0,         35,         35,        1,  5529600, 0x81d8678d
0,         36,         36,        1,  5529600, 0xc5dd33d3
0,         37,         37,        1,  5529600, 0x14a2da38
0,         38,         38,        1,  5529600, 0x40502a17
0,         39,         39,        1,  5529600, 0xc51a2a23
0,         40,         40,        1,  5529600, 0x24ee65fc
0,         41,         41,        1,  5529600, 0xb50fe97e
0,         42,         42,        1,  5529600, 0x482904b2
0,         43,         43,        1,  5529600, 0x05863808
0,         44,         44,        1,  5529600, 0x67f5b060
0,         45,         45,        1,  5529600, 0x91a0b831
0,         46,         46,        1,  5529600, 0x05d2c1ad
0,         47,         47,        1,  5529600, 0x3a56cc48
0,         48,         48,        1,  5529600, 0xbc49cacb
0,         49,         49,        1,  5529600, 0xaa66c931
0,         50,         50,        1,  5529600, 0x94461f8b
0,         51,         51,        1,  5529600, 0x5ddf6a14
0,         52,         52,        1,  5529600, 0x31e5424c
0,         53,         53,        1,  5529600, 0x488794d1
0,         54,         54,        1,  5529600, 0x0c111603
0,         55,         55,        1,  5529600, 0x94080d0d
0,         56,         56,        1,  5529600, 0xcd6f7671
0,         57,         57,        1,  5529600, 0xfea81026
0,         58,         58,        1,  5529600, 0x556f1d02
0,         59,         59,        1,  5529600, 0x8dd3b37e
0,         60,         60,        1,  5529600, 0x46a81c54
0,         61,         61,        1,  5529600, 0xcaed4a58
0,         62,         62,        1,  5529600, 0x6674cd52
0,         63,         63,        1,  5529600, 0xba5a0e0a
0,         64,         64,        1,  5529600, 0x59db1718
0,         65,         65,        1,  5529600, 0xc4091179
0,         66,         66,        1,  5529600, 0x672b0763
0,         67,         67,        1,  5529600, 0xdb8e6db9
0,         68,         68,        1,  5529600, 0x3bcd1974
0,         69,         69,        1,  5529600, 0x424ed7a9
0,         70,         70,        1,  5529600, 0xe4a917e4
0,         71,         71,        1,  5529600, 0x18614b12
0,         72,         72,        1,  5529600, 0xb99a8057
0,         73,         73,        1,  5529600, 0x0c935c27
0,         74,         74,        1,  5529600, 0x35225b23
0,         75,         75,        1,  5529600, 0x3df5bd4b
0,         76,         76,        1,  5529600, 0xd9b03452
0,         77,         77,        1,  5529600, 0xbb587a61
0,         78,         78,        1,  5529600, 0x18599830
0,         79,         79,        1,  5529600, 0xb89b7fc5
0,         80,         80,        1,  5529600, 0xe65e6e2e
0,         81,         81,        1,  5529600, 0xf9a7243a
0,         82,         82,        1,  5529600, 0x16b4e881
0,         83,         83,        1,  5529600, 0xe6c5a99c
0,         84,         84,        1,  5529600, 0x9a2f53f1
0,         85,         85,        1,  5529600, 0xbe641125
0,         86,         86,        1,  5529600, 0x0103d704
0,         87,         87,        1,  5529600, 0x21134f1d
0,         88,         88,        1,  5529600, 0x40f58ed4
0,         89,         89,        1,  5529600, 0x98c47d28
0,         90,         90,        1,  5529600, 0x9eaf277b
0,         91,         91,        1,  5529600, 0x8b48f3d5
0,         92,         92,        1,  5529600, 0x8d27f346
0,         93,         93,        1,  5529600, 0x6769bd9d
0,         94,         94,        1,  5529600, 0xe0278e23
0,         95,         95,        1,  5529600, 0x7b88da90
0,         96,         96,        1,  5529600, 0xdeff5886
0,         97,         97,        1,  5529600, 0x82a8398c
0,         98,         98,        1,  5529600, 0xd43f6225
0,         99,         99,        1,  5529600, 0x3800c068
